<?xml version="1.0" standalone="no"?>
<!DOCTYPE svg PUBLIC "-//W3C//DTD SVG 20010904//EN"
 "http://www.w3.org/TR/2001/REC-SVG-20010904/DTD/svg10.dtd">
<svg version="1.0" xmlns="http://www.w3.org/2000/svg"
 width="1600.000000pt" height="1600.000000pt" viewBox="0 0 1600.000000 1600.000000"
 preserveAspectRatio="xMidYMid meet">
<metadata>
Created by potrace 1.11, written by Peter Selinger 2001-2013
</metadata>
<g transform="translate(0.000000,1600.000000) scale(0.100000,-0.100000)"
fill="#000000" stroke="none">
<path d="M7950 15293 c0 -39 -21 -92 -34 -87 -10 4 -14 -39 -19 -213 -24 -870
-320 -1682 -864 -2363 -137 -173 -412 -449 -577 -579 -463 -367 -993 -625
-1546 -750 -337 -77 -762 -115 -1040 -92 -180 14 -242 14 -218 1 13 -8 15 -16
7 -43 -20 -72 -31 -88 -52 -81 -20 6 -21 6 -4 -19 23 -35 21 -47 -5 -48 -22
-1 -22 -1 2 -9 14 -4 40 -8 59 -9 30 -1 51 -19 185 -153 242 -245 413 -459
586 -739 447 -718 652 -1626 555 -2449 -105 -881 -469 -1644 -1088 -2277 -84
-86 -117 -113 -143 -118 -23 -4 -34 -12 -34 -23 0 -9 -7 -26 -15 -36 -13 -17
-13 -22 0 -36 8 -9 23 -41 33 -71 16 -46 23 -54 46 -57 15 -2 30 -10 33 -17 4
-11 11 -10 33 7 28 20 36 21 216 14 627 -24 1147 -152 1664 -410 770 -385
1354 -966 1734 -1724 176 -350 287 -693 350 -1075 39 -231 46 -334 46 -642 0
-156 3 -291 6 -300 6 -14 8 -13 21 5 9 13 25 20 47 20 42 0 126 -29 126 -43 0
-8 3 -8 11 0 16 16 28 194 28 413 2 415 106 913 281 1339 226 549 610 1091
1028 1449 616 528 1306 832 2109 929 202 24 717 24 809 0 68 -18 117 -14 88 8
-14 10 -15 17 -4 49 7 21 25 53 41 71 25 28 28 37 19 59 -5 14 -17 26 -25 26
-22 0 -363 343 -471 473 -519 631 -813 1331 -900 2149 -22 204 -14 606 15 823
115 849 463 1575 1053 2193 l98 104 66 8 c36 5 68 11 71 14 3 3 0 19 -7 35 -6
16 -9 35 -5 41 4 6 -1 20 -11 31 -9 10 -18 35 -19 54 -1 20 -4 38 -7 40 -3 3
-135 7 -294 9 -663 8 -1158 125 -1729 406 -665 328 -1185 801 -1571 1427 -380
617 -573 1316 -574 2076 0 99 -3 127 -13 127 -8 0 -19 11 -25 25 -10 22 -18
25 -59 25 -27 0 -61 7 -77 15 -35 19 -36 19 -36 -2z m187 -1558 c118 -357 322
-760 536 -1060 193 -270 468 -569 700 -761 648 -534 1408 -853 2239 -939 81
-8 181 -15 223 -15 41 0 75 -3 75 -6 0 -3 -30 -38 -67 -78 -36 -39 -109 -125
-162 -191 -480 -601 -779 -1354 -851 -2150 -16 -179 -14 -564 5 -740 97 -923
496 -1791 1119 -2432 54 -57 95 -103 90 -103 -5 0 -110 -2 -234 -4 -420 -9
-800 -75 -1182 -205 -1196 -408 -2101 -1305 -2540 -2521 l-49 -135 6 3907 7
3906 -21 12 c-14 7 -27 7 -39 1 -18 -10 -19 -74 -25 -1668 -4 -912 -7 -2621
-7 -3799 0 -1177 -3 -2203 -7 -2279 l-6 -138 -42 129 c-84 255 -226 572 -362
803 -552 942 -1484 1631 -2560 1892 -256 62 -593 109 -790 109 -40 0 -73 3
-73 6 0 3 42 51 93 107 419 461 709 991 887 1618 190 671 197 1396 19 2088
-36 142 -125 408 -186 556 -186 455 -483 911 -815 1251 l-80 81 199 6 c1145
32 2258 595 2990 1512 364 455 630 997 784 1595 l12 45 33 -130 c19 -71 55
-193 81 -270z"/>
</g>
</svg>
